<?xml version="1.0" standalone="no"?><!DOCTYPE svg PUBLIC "-//W3C//DTD SVG 1.1//EN" "http://www.w3.org/Graphics/SVG/1.1/DTD/svg11.dtd"><svg t="1650281438678" class="icon" viewBox="0 0 1024 1024" version="1.1" xmlns="http://www.w3.org/2000/svg" p-id="39024" xmlns:xlink="http://www.w3.org/1999/xlink" width="200" height="200"><defs><style type="text/css">@font-face { font-family: feedback-iconfont; src: url("//at.alicdn.com/t/font_1031158_u69w8yhxdu.woff2?t=1630033759944") format("woff2"), url("//at.alicdn.com/t/font_1031158_u69w8yhxdu.woff?t=1630033759944") format("woff"), url("//at.alicdn.com/t/font_1031158_u69w8yhxdu.ttf?t=1630033759944") format("truetype"); }
</style></defs><path d="M136.533333 551.822222c0-76.231111 32.995556-146.773333 86.471111-201.386666-7.964444-88.746667 1.137778-141.084444 27.306667-157.013334 27.306667-17.066667 73.955556 3.413333 138.808889 61.44 36.408889-10.24 76.231111-15.928889 117.191111-15.928889 38.684444 0 76.231111 4.551111 111.502222 14.791111 68.266667-61.44 116.053333-83.057778 144.497778-65.991111 27.306667 17.066667 35.271111 70.542222 26.168889 161.564445 54.613333 54.613333 87.608889 125.155556 87.608889 202.524444 0 100.124444-55.751111 188.871111-141.084445 245.76 48.924444 21.617778 92.16 51.2 128.568889 86.471111C962.56 790.755556 1024 658.773333 1024 512 1024 228.693333 795.306667 0 512 0S0 228.693333 0 512c0 146.773333 61.44 278.755556 160.426667 372.053333 35.271111-32.995556 76.231111-61.44 121.742222-83.057777-88.746667-56.888889-145.635556-147.911111-145.635556-249.173334z" fill="#EDEEF1" p-id="39025"></path><path d="M876.088889 551.822222c0-77.368889-32.995556-147.911111-87.608889-202.524444 9.102222-91.022222 0-145.635556-26.168889-161.564445-27.306667-17.066667-76.231111 4.551111-144.497778 65.991111-35.271111-9.102222-72.817778-14.791111-111.502222-14.791111-40.96 0-79.644444 5.688889-117.191111 15.928889-65.991111-58.026667-112.64-78.506667-138.808889-61.44-26.168889 15.928889-35.271111 68.266667-27.306667 157.013334-54.613333 54.613333-86.471111 125.155556-86.471111 201.386666 0 101.262222 56.888889 192.284444 145.635556 249.173334-46.648889 21.617778-87.608889 50.062222-121.742222 83.057777 59.164444 56.888889 133.12 98.986667 213.902222 121.742223C406.186667 940.942222 455.111111 898.844444 512 898.844444s105.813333 42.097778 137.671111 105.813334c81.92-22.755556 154.737778-64.853333 213.902222-121.742222-36.408889-34.133333-79.644444-63.715556-128.568889-86.471112C820.337778 740.693333 876.088889 651.946667 876.088889 551.822222zM278.755556 342.471111c-4.551111 1.137778-7.964444 3.413333-11.377778 5.688889-4.551111 0-9.102222 0-12.515556-2.275556-22.755556-22.755556-20.48-108.088889 11.377778-125.155555s113.777778 34.133333 102.4 62.577778c-7.964444 11.377778-44.373333 43.235556-76.231111 58.026666-5.688889-1.137778-11.377778 0-13.653333 1.137778z m116.053333 435.768889c-13.653333-4.551111-26.168889-10.24-38.684445-15.928889 10.24-6.826667 19.342222-17.066667 27.306667-31.857778 3.413333-6.826667 6.826667-13.653333 9.102222-21.617777 1.137778 7.964444 1.137778 17.066667 2.275556 25.031111v44.373333z m327.68-443.733333c-21.617778-18.204444-47.786667-31.857778-75.093333-43.235556-2.275556-2.275556-4.551111-4.551111-5.688889-6.826667-11.377778-28.444444 77.368889-84.195556 112.64-65.991111 22.755556 11.377778 23.893333 105.813333 1.137777 128.568889-5.688889 2.275556-11.377778 2.275556-19.342222 1.137778l-13.653333-13.653333z" fill="#C8D3E3" p-id="39026"></path><path d="M750.933333 591.644444c-23.893333 7.964444-31.857778-64.853333-52.337777-62.577777-19.342222 1.137778-27.306667 65.991111-38.684445 65.991111-22.755556 0-45.511111-37.546667-68.266667-48.924445-94.435556-46.648889-27.306667 34.133333-56.888888 34.133334-26.168889 0-170.666667-56.888889-182.044445-34.133334-2.275556 5.688889 0 11.377778-11.377778 22.755556s-34.133333-56.888889-45.511111-34.133333c-10.24 52.337778 5.688889 109.226667 2.275556 191.146666 52.337778 43.235556 126.293333 70.542222 208.213333 70.542222 110.364444 0 205.937778-48.924444 254.862222-121.742222-5.688889-61.44 22.755556-116.053333-10.24-83.057778z m-341.333333 102.4c-12.515556 0-22.755556-14.791111-22.755556-34.133333s10.24-34.133333 22.755556-34.133333 22.755556 14.791111 22.755556 34.133333-10.24 34.133333-22.755556 34.133333z m204.8 0c-12.515556 0-22.755556-14.791111-22.755556-34.133333s10.24-34.133333 22.755556-34.133333 22.755556 14.791111 22.755556 34.133333-10.24 34.133333-22.755556 34.133333z" fill="#F4F6F9" p-id="39027"></path><path d="M591.644444 659.911111a34.133333 22.755556 90 1 0 45.511112 0 34.133333 22.755556 90 1 0-45.511112 0Z" fill="#97A7BD" p-id="39028"></path><path d="M386.844444 659.911111a34.133333 22.755556 90 1 0 45.511112 0 34.133333 22.755556 90 1 0-45.511112 0Z" fill="#97A7BD" p-id="39029"></path><path d="M796.444444 563.2c0 39.822222-12.515556 78.506667-35.271111 111.502222-6.826667-61.44 22.755556-116.053333-10.24-83.057778-23.893333 7.964444-31.857778-64.853333-52.337777-62.577777-19.342222 1.137778-27.306667 65.991111-38.684445 65.991111-22.755556 0-45.511111-37.546667-68.266667-48.924445-94.435556-46.648889-27.306667 34.133333-56.888888 34.133334-26.168889 0-170.666667-56.888889-182.044445-34.133334-2.275556 5.688889 0 11.377778-11.377778 22.755556s-34.133333-56.888889-45.511111-34.133333c-10.24 52.337778 5.688889 109.226667 2.275556 191.146666-51.2-42.097778-81.92-98.986667-81.92-162.702222C216.177778 434.631111 345.884444 329.955556 506.311111 329.955556S796.444444 434.631111 796.444444 563.2zM367.502222 282.168889c11.377778-28.444444-70.542222-79.644444-102.4-62.577778s-34.133333 102.4-11.377778 125.155556c29.582222 14.791111 102.4-45.511111 113.777778-62.577778zM735.004444 349.297778c7.964444 2.275556 15.928889 2.275556 21.617778-1.137778 22.755556-22.755556 21.617778-117.191111-1.137778-128.568889-35.271111-18.204444-124.017778 37.546667-112.64 65.991111 7.964444 11.377778 43.235556 43.235556 75.093334 58.026667 3.413333 1.137778 7.964444 2.275556 11.377778 3.413333 1.137778 0 3.413333 1.137778 5.688888 2.275556z" fill="#97A7BD" p-id="39030"></path><path d="M733.866667 349.297778c-5.688889-1.137778-11.377778-3.413333-17.066667-5.688889 3.413333 1.137778 7.964444 2.275556 11.377778 3.413333 2.275556 0 4.551111 1.137778 5.688889 2.275556zM649.671111 1004.657778C605.297778 1017.173333 559.786667 1024 512 1024s-93.297778-6.826667-137.671111-19.342222C406.186667 940.942222 455.111111 898.844444 512 898.844444s105.813333 42.097778 137.671111 105.813334z" fill="#97A7BD" p-id="39031"></path></svg>